# xmcd
#
# Track frame offsets: 
#        150
#        17364
#        38154
#        62752
#        75837
#        99001
#        118200
#        142500
#        160912
#        184391
#        225618
#        242227
#
# Disc length: 3892 seconds
#
# Revision: 2
# Processed by: cddbd v1.5.2PL0 Copyright (c) Steve Scherf et al.
# Submitted via: ExactAudioCopy v0.99pb5
#
DISCID=860f320c
DTITLE=Joanna Connor - Joanna Connor
DYEAR=2004
DGENRE=Blues
TTITLE0=Big Girl Blues
TTITLE1=43rd Street
TTITLE2=Slippin Away
TTITLE3=Fire
TTITLE4=Doctor Feelgood
TTITLE5=Living On The Road
TTITLE6=Texas
TTITLE7=Nothin But The Blues
TTITLE8=Slide On In
TTITLE9=Sky Is Crying
TTITLE10=Guitar Dove
TTITLE11=Walkin Blues
EXTD=
EXTT0=
EXTT1=
EXTT2=
EXTT3=
EXTT4=
EXTT5=
EXTT6=
EXTT7=
EXTT8=
EXTT9=
EXTT10=
EXTT11=
PLAYORDER=
